<svg xmlns="http://www.w3.org/2000/svg" width="760" height="260" viewBox="0 0 760 260">
  <defs>
    <linearGradient id="gd" x1="0" y1="0" x2="1" y2="1">
      <stop offset="0" stop-color="#ffc83d"/>
      <stop offset="0.5" stop-color="#ff8a3d"/>
      <stop offset="1" stop-color="#ff5470"/>
    </linearGradient>
    <style>
      @import url('https://fonts.googleapis.com/css2?family=Satisfy&amp;display=swap');
      .wm { font-family:'Satisfy',cursive; font-size:96px; fill:#4a1f12; }
    </style>
  </defs>
  <g transform="translate(-95,-20) scale(0.92)">
    <g fill="url(#gd)" stroke="#4a1f12" stroke-width="1.4" stroke-linejoin="round">
      <path d="M220 128 C 250 90, 314 84, 314 124 C 314 154, 262 162, 220 142 Z"/>
      <path d="M220 150 C 244 162, 292 170, 288 198 C 284 222, 240 202, 220 158 Z"/>
      <path d="M220 128 C 190 90, 126 84, 126 124 C 126 154, 178 162, 220 142 Z"/>
      <path d="M220 150 C 196 162, 148 170, 152 198 C 156 222, 200 202, 220 158 Z"/>
    </g>
    <g fill="none" stroke="#4a1f12" stroke-width="3" stroke-linecap="round" stroke-linejoin="round">
      <path d="M220 116 C 218 140, 218 176, 220 200"/>
      <path d="M220 116 C 211 102, 203 94, 197 88"/>
      <path d="M220 116 C 229 102, 237 94, 243 88"/>
    </g>
    <circle cx="197" cy="87" r="3" fill="#4a1f12"/>
    <circle cx="243" cy="87" r="3" fill="#4a1f12"/>
  </g>
  <text x="300" y="160" class="wm">evolution</text>
</svg>
